<?xml version="1.0" standalone="no"?>
<!DOCTYPE svg PUBLIC "-//W3C//DTD SVG 20010904//EN"
 "http://www.w3.org/TR/2001/REC-SVG-20010904/DTD/svg10.dtd">
<svg version="1.0" xmlns="http://www.w3.org/2000/svg"
 width="629.000000pt" height="629.000000pt" viewBox="0 0 629.000000 629.000000"
 preserveAspectRatio="xMidYMid meet">
<metadata>
Created by potrace 1.14, written by Peter Selinger 2001-2017
</metadata>
<g transform="translate(0.000000,629.000000) scale(0.100000,-0.100000)"
fill="#000000" stroke="none">
<path d="M3046 6253 c-1 -2 -43 -5 -92 -8 -79 -5 -179 -15 -284 -31 -30 -4
-88 -15 -215 -40 -106 -20 -331 -92 -500 -159 -60 -24 -312 -149 -363 -180
-10 -6 -39 -24 -67 -40 -27 -16 -74 -46 -104 -67 -29 -21 -59 -35 -65 -31 -6
3 -8 3 -4 -2 4 -4 -23 -30 -60 -58 -118 -87 -234 -189 -347 -302 -102 -102
-138 -143 -212 -235 -15 -19 -38 -45 -50 -57 -12 -13 -19 -23 -16 -23 4 0 -3
-10 -14 -22 -28 -31 -154 -219 -183 -273 -6 -11 -22 -40 -36 -65 -138 -240
-260 -559 -320 -834 -19 -87 -43 -221 -48 -271 -19 -173 -22 -203 -21 -233 0
-18 -2 -32 -5 -32 -6 0 -4 -132 5 -300 11 -198 13 -228 21 -252 3 -12 8 -42 9
-67 1 -25 8 -66 15 -90 6 -24 9 -53 6 -63 -2 -11 -2 -17 2 -14 7 7 54 -175 56
-216 0 -14 3 -24 5 -22 4 4 36 -86 44 -126 2 -8 10 -28 17 -45 31 -74 45 -115
42 -127 -1 -5 3 -8 8 -8 6 0 10 -6 10 -13 0 -14 131 -281 180 -367 18 -30 50
-81 71 -112 21 -32 39 -60 39 -63 0 -3 6 -13 14 -22 8 -10 44 -57 80 -106 131
-174 285 -339 447 -479 102 -88 219 -177 319 -242 41 -27 78 -54 82 -60 4 -6
8 -7 8 -2 0 5 6 3 14 -3 7 -6 57 -35 110 -65 53 -29 93 -56 88 -61 -4 -4 -2
-5 5 -2 6 4 38 -7 71 -23 34 -17 63 -30 65 -30 3 0 31 -12 63 -27 33 -15 61
-27 64 -28 3 -1 12 -5 20 -8 36 -16 289 -96 322 -102 21 -4 35 -11 32 -16 -3
-5 1 -6 9 -3 8 3 34 0 58 -6 24 -7 63 -16 88 -20 26 -5 55 -10 66 -13 11 -3
45 -8 75 -12 30 -4 62 -9 71 -10 104 -20 610 -27 724 -11 185 26 244 35 322
52 40 9 77 12 84 8 8 -4 9 -3 5 4 -4 7 -1 12 7 12 17 0 224 57 252 70 11 5 40
16 65 24 311 100 730 349 1004 596 60 54 226 219 271 270 22 25 44 44 50 42 5
-2 7 0 3 3 -9 9 80 125 95 125 6 0 7 3 4 7 -4 3 9 25 28 49 63 77 196 297 271
449 40 83 78 155 83 161 5 7 8 14 6 16 -3 2 9 36 25 75 48 119 124 372 146
488 2 11 8 43 13 70 13 66 30 191 33 238 1 20 5 37 9 37 7 0 4 571 -5 615 -3
17 -8 54 -11 83 -5 46 -36 221 -48 277 -30 130 -70 269 -97 340 -84 220 -89
232 -158 370 -70 142 -128 238 -249 415 -9 14 -39 52 -65 86 -26 34 -45 64
-43 68 3 3 2 4 -1 2 -3 -2 -35 30 -71 72 -115 134 -319 327 -448 424 -5 4 -23
18 -40 31 -16 13 -52 39 -80 57 -27 19 -52 36 -55 39 -3 3 -17 12 -32 20 -16
8 -28 18 -28 23 0 4 -4 8 -10 8 -5 0 -33 15 -62 33 -29 18 -71 42 -93 52 -22
11 -42 22 -45 25 -17 17 -281 135 -380 169 -36 13 -74 27 -85 32 -21 9 -185
57 -220 64 -11 3 -60 14 -110 24 -188 41 -222 46 -470 66 -16 2 -32 3 -35 4
-8 3 -251 6 -254 4z"/>
</g>
</svg>
